<?xml version="1.0" encoding="us-ascii" standalone="no"?><svg xmlns="http://www.w3.org/2000/svg" xmlns:xlink="http://www.w3.org/1999/xlink" contentStyleType="text/css" height="449.4px" preserveAspectRatio="none" style="width:938px;height:449px;background:#FFFFFF;" version="1.1" viewBox="0 0 938 449" width="938.7px" zoomAndPan="magnify"><defs/><g><!--cluster UI--><g id="cluster_UI"><path d="M271.25,4.2 L283.15,4.2 A2.625,2.625 0 0 1 284.9,5.95 L289.8,19.8078 L547.75,19.8078 A1.75,1.75 0 0 1 549.5,21.5578 L549.5,81.55 A1.75,1.75 0 0 1 547.75,83.3 L271.25,83.3 A1.75,1.75 0 0 1 269.5,81.55 L269.5,5.95 A1.75,1.75 0 0 1 271.25,4.2 " fill="none" style="stroke:#000000;stroke-width:1.0499999999999998;"/><line style="stroke:#000000;stroke-width:1.0499999999999998;" x1="269.5" x2="289.8" y1="19.8078" y2="19.8078"/><text fill="#000000" font-family="sans-serif" font-size="9.8" font-weight="bold" lengthAdjust="spacing" textLength="11.2" x="272.3" y="14.6966">UI</text></g><!--cluster Domain--><g id="cluster_Domain"><path d="M310.45,240.8 L353.85,240.8 A2.625,2.625 0 0 1 355.6,242.55 L360.5,256.4078 L600.25,256.4078 A1.75,1.75 0 0 1 602,258.1578 L602,442.75 A1.75,1.75 0 0 1 600.25,444.5 L310.45,444.5 A1.75,1.75 0 0 1 308.7,442.75 L308.7,242.55 A1.75,1.75 0 0 1 310.45,240.8 " fill="none" style="stroke:#000000;stroke-width:1.0499999999999998;"/><line style="stroke:#000000;stroke-width:1.0499999999999998;" x1="308.7" x2="360.5" y1="256.4078" y2="256.4078"/><text fill="#000000" font-family="sans-serif" font-size="9.8" font-weight="bold" lengthAdjust="spacing" textLength="42.7" x="311.5" y="251.2966">Domain</text></g><!--cluster Mappers--><g id="cluster_Mappers"><path d="M5.95,128.8 L54.25,128.8 A2.625,2.625 0 0 1 56,130.55 L60.9,144.4078 L278.95,144.4078 A1.75,1.75 0 0 1 280.7,146.1578 L280.7,318.15 A1.75,1.75 0 0 1 278.95,319.9 L5.95,319.9 A1.75,1.75 0 0 1 4.2,318.15 L4.2,130.55 A1.75,1.75 0 0 1 5.95,128.8 " fill="none" style="stroke:#000000;stroke-width:1.0499999999999998;"/><line style="stroke:#000000;stroke-width:1.0499999999999998;" x1="4.2" x2="60.9" y1="144.4078" y2="144.4078"/><text fill="#000000" font-family="sans-serif" font-size="9.8" font-weight="bold" lengthAdjust="spacing" textLength="47.6" x="7" y="139.2966">Mappers</text></g><!--cluster Data--><g id="cluster_Data"><path d="M684.95,365.4 L711.55,365.4 A2.625,2.625 0 0 1 713.3,367.15 L718.2,381.0078 L932.05,381.0078 A1.75,1.75 0 0 1 933.8,382.7578 L933.8,442.75 A1.75,1.75 0 0 1 932.05,444.5 L684.95,444.5 A1.75,1.75 0 0 1 683.2,442.75 L683.2,367.15 A1.75,1.75 0 0 1 684.95,365.4 " fill="none" style="stroke:#000000;stroke-width:1.0499999999999998;"/><line style="stroke:#000000;stroke-width:1.0499999999999998;" x1="683.2" x2="718.2" y1="381.0078" y2="381.0078"/><text fill="#000000" font-family="sans-serif" font-size="9.8" font-weight="bold" lengthAdjust="spacing" textLength="25.9" x="686" y="375.8966">Data</text></g><!--entity MainActivity--><g id="elem_MainActivity"><rect fill="#F1F1F1" height="32.4078" rx="1.75" ry="1.75" style="stroke:#181818;stroke-width:0.3499999999999999;" width="88.2" x="444.5" y="34.3"/><rect fill="#F1F1F1" height="7" style="stroke:#181818;stroke-width:0.3499999999999999;" width="10.5" x="518.7" y="37.8"/><rect fill="#F1F1F1" height="1.4" style="stroke:#181818;stroke-width:0.3499999999999999;" width="2.8" x="517.3" y="39.2"/><rect fill="#F1F1F1" height="1.4" style="stroke:#181818;stroke-width:0.3499999999999999;" width="2.8" x="517.3" y="42"/><text fill="#000000" font-family="sans-serif" font-size="9.8" lengthAdjust="spacing" textLength="60.2" x="455" y="57.3966">MainActivity</text></g><!--entity HoldingsFragment--><g id="elem_HoldingsFragment"><rect fill="#F1F1F1" height="32.4078" rx="1.75" ry="1.75" style="stroke:#181818;stroke-width:0.3499999999999999;" width="119.7" x="299.95" y="34.3"/><rect fill="#F1F1F1" height="7" style="stroke:#181818;stroke-width:0.3499999999999999;" width="10.5" x="405.65" y="37.8"/><rect fill="#F1F1F1" height="1.4" style="stroke:#181818;stroke-width:0.3499999999999999;" width="2.8" x="404.25" y="39.2"/><rect fill="#F1F1F1" height="1.4" style="stroke:#181818;stroke-width:0.3499999999999999;" width="2.8" x="404.25" y="42"/><text fill="#000000" font-family="sans-serif" font-size="9.8" lengthAdjust="spacing" textLength="91.7" x="310.45" y="57.3966">HoldingsFragment</text></g><!--entity StocksController--><g id="elem_StocksController"><rect fill="#F1F1F1" height="32.4078" rx="1.75" ry="1.75" style="stroke:#181818;stroke-width:0.3499999999999999;" width="109.9" x="325.85" y="270.9"/><rect fill="#F1F1F1" height="7" style="stroke:#181818;stroke-width:0.3499999999999999;" width="10.5" x="421.75" y="274.4"/><rect fill="#F1F1F1" height="1.4" style="stroke:#181818;stroke-width:0.3499999999999999;" width="2.8" x="420.35" y="275.8"/><rect fill="#F1F1F1" height="1.4" style="stroke:#181818;stroke-width:0.3499999999999999;" width="2.8" x="420.35" y="278.6"/><text fill="#000000" font-family="sans-serif" font-size="9.8" lengthAdjust="spacing" textLength="81.9" x="336.35" y="293.9966">StocksController</text></g><!--entity UserHoldingsDto--><g id="elem_UserHoldingsDto"><rect fill="#F1F1F1" height="32.4078" rx="1.75" ry="1.75" style="stroke:#181818;stroke-width:0.3499999999999999;" width="111.3" x="460.25" y="270.9"/><rect fill="#F1F1F1" height="7" style="stroke:#181818;stroke-width:0.3499999999999999;" width="10.5" x="557.55" y="274.4"/><rect fill="#F1F1F1" height="1.4" style="stroke:#181818;stroke-width:0.3499999999999999;" width="2.8" x="556.15" y="275.8"/><rect fill="#F1F1F1" height="1.4" style="stroke:#181818;stroke-width:0.3499999999999999;" width="2.8" x="556.15" y="278.6"/><text fill="#000000" font-family="sans-serif" font-size="9.8" lengthAdjust="spacing" textLength="83.3" x="470.75" y="293.9966">UserHoldingsDto</text></g><!--entity Utils--><g id="elem_Utils"><rect fill="#F1F1F1" height="32.4078" rx="1.75" ry="1.75" style="stroke:#181818;stroke-width:0.3499999999999999;" width="49" x="356.3" y="395.5"/><rect fill="#F1F1F1" height="7" style="stroke:#181818;stroke-width:0.3499999999999999;" width="10.5" x="391.3" y="399"/><rect fill="#F1F1F1" height="1.4" style="stroke:#181818;stroke-width:0.3499999999999999;" width="2.8" x="389.9" y="400.4"/><rect fill="#F1F1F1" height="1.4" style="stroke:#181818;stroke-width:0.3499999999999999;" width="2.8" x="389.9" y="403.2"/><text fill="#000000" font-family="sans-serif" font-size="9.8" lengthAdjust="spacing" textLength="21" x="366.8" y="418.5966">Utils</text></g><!--entity DataMappers--><g id="elem_DataMappers"><rect fill="#F1F1F1" height="32.4078" rx="1.75" ry="1.75" style="stroke:#181818;stroke-width:0.3499999999999999;" width="94.5" x="21.35" y="158.9"/><rect fill="#F1F1F1" height="7" style="stroke:#181818;stroke-width:0.3499999999999999;" width="10.5" x="101.85" y="162.4"/><rect fill="#F1F1F1" height="1.4" style="stroke:#181818;stroke-width:0.3499999999999999;" width="2.8" x="100.45" y="163.8"/><rect fill="#F1F1F1" height="1.4" style="stroke:#181818;stroke-width:0.3499999999999999;" width="2.8" x="100.45" y="166.6"/><text fill="#000000" font-family="sans-serif" font-size="9.8" lengthAdjust="spacing" textLength="66.5" x="31.85" y="181.9966">DataMappers</text></g><!--entity DomainMappers--><g id="elem_DomainMappers"><rect fill="#F1F1F1" height="32.4078" rx="1.75" ry="1.75" style="stroke:#181818;stroke-width:0.3499999999999999;" width="109.9" x="140.35" y="158.9"/><rect fill="#F1F1F1" height="7" style="stroke:#181818;stroke-width:0.3499999999999999;" width="10.5" x="236.25" y="162.4"/><rect fill="#F1F1F1" height="1.4" style="stroke:#181818;stroke-width:0.3499999999999999;" width="2.8" x="234.85" y="163.8"/><rect fill="#F1F1F1" height="1.4" style="stroke:#181818;stroke-width:0.3499999999999999;" width="2.8" x="234.85" y="166.6"/><text fill="#000000" font-family="sans-serif" font-size="9.8" lengthAdjust="spacing" textLength="81.9" x="150.85" y="181.9966">DomainMappers</text></g><!--entity UiMappers--><g id="elem_UiMappers"><rect fill="#F1F1F1" height="32.4078" rx="1.75" ry="1.75" style="stroke:#181818;stroke-width:0.3499999999999999;" width="80.5" x="28.35" y="270.9"/><rect fill="#F1F1F1" height="7" style="stroke:#181818;stroke-width:0.3499999999999999;" width="10.5" x="94.85" y="274.4"/><rect fill="#F1F1F1" height="1.4" style="stroke:#181818;stroke-width:0.3499999999999999;" width="2.8" x="93.45" y="275.8"/><rect fill="#F1F1F1" height="1.4" style="stroke:#181818;stroke-width:0.3499999999999999;" width="2.8" x="93.45" y="278.6"/><text fill="#000000" font-family="sans-serif" font-size="9.8" lengthAdjust="spacing" textLength="52.5" x="38.85" y="293.9966">UiMappers</text></g><!--entity StockService--><g id="elem_StockService"><rect fill="#F1F1F1" height="32.4078" rx="1.75" ry="1.75" style="stroke:#181818;stroke-width:0.3499999999999999;" width="92.4" x="824.6" y="395.5"/><rect fill="#F1F1F1" height="7" style="stroke:#181818;stroke-width:0.3499999999999999;" width="10.5" x="903" y="399"/><rect fill="#F1F1F1" height="1.4" style="stroke:#181818;stroke-width:0.3499999999999999;" width="2.8" x="901.6" y="400.4"/><rect fill="#F1F1F1" height="1.4" style="stroke:#181818;stroke-width:0.3499999999999999;" width="2.8" x="901.6" y="403.2"/><text fill="#000000" font-family="sans-serif" font-size="9.8" lengthAdjust="spacing" textLength="64.4" x="835.1" y="418.5966">StockService</text></g><!--entity StocksRepo--><g id="elem_StocksRepo"><rect fill="#F1F1F1" height="32.4078" rx="1.75" ry="1.75" style="stroke:#181818;stroke-width:0.3499999999999999;" width="86.1" x="713.65" y="395.5"/><rect fill="#F1F1F1" height="7" style="stroke:#181818;stroke-width:0.3499999999999999;" width="10.5" x="785.75" y="399"/><rect fill="#F1F1F1" height="1.4" style="stroke:#181818;stroke-width:0.3499999999999999;" width="2.8" x="784.35" y="400.4"/><rect fill="#F1F1F1" height="1.4" style="stroke:#181818;stroke-width:0.3499999999999999;" width="2.8" x="784.35" y="403.2"/><text fill="#000000" font-family="sans-serif" font-size="9.8" lengthAdjust="spacing" textLength="58.1" x="724.15" y="418.5966">StocksRepo</text></g><!--link UI to Mappers--><g id="link_UI_Mappers"><path d="M275.1,83.7037 C275.1,83.9122 275.1,84.1212 275.1,84.3309 C275.1,84.7501 275.1,85.1716 275.1,85.5953 C275.1,87.2898 275.1,89.0185 275.1,90.7746 C275.1,97.7988 275.1,105.2605 275.1,112.7219 C275.1,116.4525 275.1,120.1831 275.1,123.8589 C275.1,124.7778 275.1,125.6933 275.1,126.6045 C275.1,127.0602 275.1,127.5147 275.1,127.9681 C275.1,128.1948 275.1,124.2211 275.1,124.4472 " fill="none" id="UI-to-Mappers" style="stroke:#181818;stroke-width:0.6999999999999998;"/><polygon fill="#181818" points="275.1,128.6472,277.9,122.3472,275.1,125.1472,272.3,122.3472,275.1,128.6472" style="stroke:#181818;stroke-width:0.6999999999999998;"/><text fill="#000000" font-family="sans-serif" font-size="9.1" lengthAdjust="spacing" textLength="21" x="275.8" y="109.2468">uses</text></g><!--link Mappers to Domain--><g id="link_Mappers_Domain"><path d="M280.8995,175.8803 C281.0626,175.8859 281.229,175.8917 281.3987,175.8976 C281.7379,175.9094 282.09,175.9218 282.4546,175.9348 C283.9134,175.9867 285.574,176.0483 287.4227,176.1205 C294.8175,176.4095 305.2217,176.8689 317.7527,177.564 C342.8149,178.9541 376.3847,181.2869 411.4022,185.0835 C481.4372,192.6767 557.263,206.1255 582.4,229.6 C584.6977,231.7455 586.6443,234.2028 588.291,236.865 C588.7027,237.5305 589.0956,238.2089 589.4706,238.8984 C589.6581,239.2431 589.8411,239.5906 590.0198,239.9407 C590.1091,240.1158 590.1973,240.2915 590.2844,240.4678 C590.328,240.5559 588.5342,236.8673 588.5772,236.9558 " fill="none" id="Mappers-to-Domain" style="stroke:#181818;stroke-width:0.6999999999999998;"/><polygon fill="#181818" points="590.4143,240.7327,590.1766,233.8426,588.8834,237.5853,585.1407,236.2921,590.4143,240.7327" style="stroke:#181818;stroke-width:0.6999999999999998;"/><text fill="#000000" font-family="sans-serif" font-size="9.1" lengthAdjust="spacing" textLength="61.6" x="571.2" y="221.2468">maps to/from</text></g><!--link Domain to Data--><g id="link_Domain_Data"><path d="M602.061,329.5031 C602.0917,329.6062 602.1226,329.7092 602.1537,329.8122 C604.1416,336.4051 606.8125,342.9107 610.4,348.6 C622.0865,367.129 641.2612,382.5097 657.7217,393.3527 C665.952,398.7742 673.5037,403.0613 679.1015,406.0402 C680.501,406.785 681.7783,407.448 682.9136,408.0265 C682.9845,408.0626 679.3108,406.1955 679.3806,406.231 " fill="none" id="Domain-to-Data" style="stroke:#181818;stroke-width:0.6999999999999998;"/><polygon fill="#181818" points="683.1248,408.1339,678.7771,402.7834,680.0046,406.5482,676.2399,407.7757,683.1248,408.1339" style="stroke:#181818;stroke-width:0.6999999999999998;"/><text fill="#000000" font-family="sans-serif" font-size="9.1" lengthAdjust="spacing" textLength="100.1" x="611.1" y="345.8468">requests data through</text></g><!--link Data to Domain--><g id="link_Data_Domain"><path d="M695.3894,365.3104 C695.5495,364.9463 695.7133,364.584 695.8807,364.2238 C696.2156,363.5032 696.5654,362.7906 696.9307,362.0875 C698.392,359.275 700.1015,356.6141 702.1,354.2 C706.006,349.482 711.361,353.738 714.7,348.6 C717.584,344.162 717.64,341.096 714.7,336.7 C699.139,313.411 670.2377,301.1767 644.8977,294.7569 C632.2277,291.5469 620.4481,289.7906 611.6714,288.8328 C609.4772,288.5933 607.4707,288.4038 605.6849,288.2539 C604.792,288.179 603.9543,288.114 603.1759,288.0576 C602.7867,288.0294 606.6029,288.2839 606.2439,288.2598 " fill="none" id="Data-to-Domain" style="stroke:#181818;stroke-width:0.6999999999999998;"/><polygon fill="#181818" points="602.0533,287.9794,608.1522,291.1938,605.5455,288.2131,608.5262,285.6063,602.0533,287.9794" style="stroke:#181818;stroke-width:0.6999999999999998;"/><text fill="#000000" font-family="sans-serif" font-size="9.1" lengthAdjust="spacing" textLength="67.2" x="717.5" y="345.8468">returns data to</text></g><!--SRC=[LOwnRiCm34HtVGMHfLFGlKE1eaRH35aQU2ey20vZ2v55bQG354N_lOej6HKttl4TBzh-QWU4NNlOmO-1D9z7wy9Bh-xczBjRfNVoPnS6UMCxJ1YqCx_6nC8sD2LauqzA_LLUAIYJzyWvenNaajCe5LMTbphkQ6D4bYsliMgpbg7rOQsrRjkhRWckcvsGRwx7xd_P3uoqS0yDNbn0OFHM7GKPNHJJ7c2_VuRy09vW5XHJrhkrDahEPAE0qkE5QJ9PNGvIZsGpViqeAd2-xpeopSDe5hEAOTIPGpaZymS0]--></g></svg>